<svg baseProfile="tiny" xmlns="http://www.w3.org/2000/svg" width="570" height="66.1" viewBox="0 0 570 66.088"><path d="M28.8 32H14v7h3v16s.2 4-4 4c-4.3 0-4.3-4.4-4.3-4.4V12s0-5.3 4.3-5.3c5 0 5.7 6.3 5.7 11.2v6H25V.7h-6.3v4.5S16 0 9.5 0C0 0 0 11.7 0 11.7v42.8S-.5 66 10 66c4.8 0 8.2-4.3 8.2-4.3l1.7 3.7H26V39h2.6v-7zm20-31h-10l-7.5 58h-2.8v6.6h12.3V59h-2.5l.8-6H47l.8 6H45v6.6h14.8V59h-3.3L48.8.8zm-8.6 43.7l2.8-22 2.7 22h-5.5zM81.8 59h-10L88 6.8v-6H63.5v22.8h6.3V7.2h9L62.5 58.5v7H88V41h-6zM91 7.2h3.5v51.6H91v6.6h25.4V41.2h-7.2v17.6h-5.6V35.2h5.6v-6.7h-5.6V7.2h5.6v16.4h7.2V.8H91zm56 16.4V.8h-27.6v22.8h6V7.2h3.4v51.6h-4v6.6h17v-6.6h-4.3V7.2h3.3v16.4zm44.4-16.4V.8H178v6.4h3.4L177 42.6l-4.7-35.4h3V.8H160v6.4h3.3l7.8 58h10l7.6-58zM207 .7h-10l-7.5 58h-2.8v6.5H199v-6.5h-2.4l.8-6h7.6l.8 6h-2.6v6.5H218v-6.5h-3.2L207 .7zm-8.6 43.7l2.8-22 2.7 22h-5.6zm40-37.2h3.3V35L233.5.7h-12v6.4h3v51.3h-3.7v6.8h14.5v-6.8h-3.7V31l8.2 34.3h9v-58h3.4V.7h-14zM287 .6h-10l-7.5 58h-2.8v6.6H279v-6.6h-2.5l.8-6h7.7l.8 6H283v6.6h15v-6.6h-3.3L287 .6zm-8.6 43.7l2.7-22 3 22h-5.6zm40-37.3h3.3v27.8L313.5.6h-12V7h3v51.4h-3.8v6.8h14.5v-6.8h-3.7V30.7l8.2 34.5h9v-58h3.4V.5h-13.7zm44 16.4V.6h-27.7v22.8h6.2V7h3.2v51.6H340v6.6h17v-6.6h-4V7h3.2v16.4zM399 7.2h3l-3.6 27.5-5-34h-7.8l-4.5 34-4-27.5h3.6V.7H365v6.5h3l8.7 58h7.5l4.6-35.2 5.2 35.3h7.5l7.7-58h3V.6H399zm16-.2h3.4v51.6H415v6.6h25.3V41h-7v17.6h-5.8V35h5.7v-6.7h-5.7V7h5.7v16.4h7V.6H415zm58 45.8c0-8.4.4-13.6-1.5-17.2-1.4-2.6-5-3.3-5-3.3 1-.2 3.2-1.6 4-3 1.5-2.4 2.3-6.3 2.3-12 0-6-.5-8.5-1.7-11C468 0 462.8.6 459.5.6h-14.8v6.5h3v51.3h-4v6.8h16.6v-6.8h-3.7V35h3.8c2.4 0 3.7 4 3.7 8.7 0 6.8-.4 14.8 1.5 18.6 1 2 3.2 5.5 10.8 3v-6.6s-3.3 1.5-3.3-6zm-9-30.5c0 6.7-4 6-4.8 6h-2.6v-21h2.8c3 0 4.5.2 4.5 6.6v8.3zM494.5.7h-14.8v6.5h3v51.3H479v6.8h16.5v-6.8H492V35s2.5.5 4 .5c2 0 7.3 0 10-4.8 1.6-2.5 1.8-7.7 1.8-13.5 0-6-.2-8.4-1.4-11C504 1 498 .7 494.6.7zm4.2 21.6c0 6.7-4.3 6.4-4.3 6.4-1.2 0-2.6-.3-2.6-.3V7.2h2c4.2 0 4.6 2.2 4.8 6v9zM509.6 7h3.4v51.6h-3.4v6.6H535V41h-7.3v17.6H522V35h5.7v-6.7H522V7h5.7v16.4h7.2V.6h-25.4zM556 .6V7h3.5v27.8L551.3.6h-12V7h3v51.4h-3.7v6.8H553v-6.8h-3.6V30.7l8.2 34.5h9v-58h3.4V.5z" fill="#fff"/></svg>