<svg xmlns="http://www.w3.org/2000/svg" width="570" height="66.071" viewBox="0 0 570 66.071"><path d="M299.46 48.182c.074 1.698-1.49 1.805-1.49 1.805-1.603 0-1.456-2.125-1.456-2.125s-.074-32.034 0-32.14c.073-.105-.438-2.23 1.6-2.23 2.04 0 2.04 1.91 2.04 1.91v3.185l8.238-7.15-.014-3.99c-.29-2.543-1.6-4.453-3.655-4.666h-14.15c-1.92.64-3.596 2.016-3.887 5.73v44.882s-.22 6.048 4.075 6.048h11.43s2.912 0 2.986-3.5l4.04 5.905V32.378h-9.756v15.804zm152.503-3.872l-5.27-7.53.03 22.673h-8.91V2.136l14.15 24.608 14.093-23.93.014 56.557h-9.33l.014-22.698M335.315 25.005l6.07-22.263 10.22.02L335.01 61.92 319.074 2.78h9.508M90.47 2.758v16.147h-4.367V2.78H76.42v56.645h9.683V31.422h4.368v27.98h9.682V2.758m20.557 44.657h-8.737V31.422h8.01V18.905h-8.01v-4.162h10.993V2.758h-20.31v56.644h22.567m24.529-56.644h-24.898v11.985h7.572v44.66h9.682v-44.66h7.642M185.458 52.4V31.295c0-4.03-2.476-4.775-2.476-4.775 2.84-1.908 2.402-5.622 2.402-5.622V8.803c0-5.62-3.42-6.045-3.42-6.045H161v56.645h20.89c4.078 0 3.568-7.002 3.568-7.002zm-10.483-4.007h-4.586v-15.91h4.585s1.092 0 1.092 1.487v12.515s.074 2.014-1.092 1.908zm1.238-29.83s.01.805-.8.848h-5.17v-4.135h5.17s.8-.32.8.847v2.44zm29.321 28.852H196.8V31.422h8.006V18.905H196.8v-4.162h10.99V2.758h-20.31v56.644h22.565m16.233-11.752h-5.824V2.758h-9.317v56.644h17.907M393.355 2.805v62.532l-13.958-26.904-.408-.17v21.112l-8.68.02L370.25.5l13.28 26.054.514.358V2.805M353.854.64l-15.082 58.735 8.777-.022 2.868-8.977 3.844 11.54 3.668-11.198 2.505 8.657h8.91L353.855.64zm-2.33 46.767l2.738-9.59 2.505 9.59h-5.242zm69.816.039h-5.824V2.786h-9.318V59.43h17.908m68.92-6.982V31.34c0-4.032-2.474-4.774-2.474-4.774 2.84-1.908 2.403-5.622 2.403-5.622V8.85c0-5.62-3.424-6.103-3.424-6.103h-20.964V59.45h20.893c4.076-.002 3.566-7.002 3.566-7.002zm-10.48-4.243h-4.588v-15.91h4.588s1.09 0 1.09 1.485v12.516s.074 2.016-1.09 1.91zm.434-28.746h-5.167v-4.14h5.167s.804-.317.804.85v2.438s.29.424-.804.85zM560.245 47.2c.074 1.694-1.49 1.8-1.49 1.8-1.602 0-1.455-2.12-1.455-2.12s-.074-31.096 0-31.2c.07-.105-.44-2.227 1.6-2.227s2.04 1.91 2.04 1.91v3.18l8.24-7.148-.016-3.987c-.29-2.547-1.6-4.455-3.654-4.67h-14.15c-1.924.64-3.597 2.02-3.888 5.73v44.885s-.218 6.044 4.075 6.044h11.43s2.912 0 2.985-3.498L570 61.92V31.393h-9.756V47.2zM425.988 2.785h9.32V59.43h-9.32zm78.845 43.8s-.072 2.652 2.038 2.76c2.11.103 1.98-2.655 1.98-2.655V2.774h9.41V54.54c0 4.454-2.946 4.882-2.946 4.882s-13.904.104-16.6 0c-2.693-.106-3.2-4.457-3.2-4.457V2.785h9.316l.002 43.755m36.137-1.7c3.564.105 4.076-5.937 4.076-5.937V8.833c0-6.047-3.933-6.047-3.933-6.047H520.73v56.646h9.283V42.4l5.715 16.975h10.046L540.97 44.84zm-6.188-7.742h-4.803v-21.58h4.802s1.092.316 1.092 1.908v17.976s.073 1.59-1.092 1.696zM284.468 2.746V65.57l-13.962-26.074-.408-.17v20.05l-8.706.018V.618l13.25 26.995.516.362V2.745M245.025.584l-15.082 58.853 8.778-.022 2.87-8.858 3.842 11.303 3.67-10.963 2.505 8.54h8.91L245.025.585zm-2.33 47.005L245.43 38l2.506 9.59h-5.24zM66.068 33.035c0 18.24-14.787 33.036-33.033 33.036C14.795 66.07 0 51.277 0 33.036 0 14.787 14.795 0 33.035 0v10.36c-12.517 0-22.67 10.153-22.67 22.675 0 12.523 10.153 22.673 22.67 22.673 12.52 0 22.672-10.15 22.672-22.673h10.36z"/><path fill="#009FE3" d="M33.035 52.415c10.7 0 19.386-8.68 19.386-19.38 0-10.705-8.685-19.386-19.385-19.386-10.708 0-19.387 8.68-19.387 19.385 0 10.7 8.68 19.38 19.387 19.38z"/></svg>