<svg id="logo_Site-Knack-NL" xmlns="http://www.w3.org/2000/svg" viewBox="0 0 231 60"><title>logo</title><path d="M129.27 46.06s.09 1.16-3.17 2.66c-13.19 4.85-9.71-14.91 3-5.29l.22.6zm96.31-18.57H231V17.1h-23.39v10.4h4.73L203 36.85V0h-18.92v9.94h6.46V48.4h-4.27a16.15 16.15 0 0 1 1-2c.12 0-7.26-3.47-10.38-4.74-8.55 12.9-18.76 3.62-18.68-4a10.41 10.41 0 0 1 3.82-8.2 7.78 7.78 0 0 1 9.81 0 14 14 0 0 1 3.9 4.85h10V17.1h-10v2.77c-13.45-7.87-25.2-.87-29.44 9.58a21.86 21.86 0 0 0 1 18.95H142V29.34c-.88-19.14-32.63-14.78-37-3.34 0 0 10.5 2.54 10.49 2.43a7.64 7.64 0 0 1 6.11-3.24c4.5-.09 6.37 1.94 7.16 4.28a13.86 13.86 0 0 1 .56 4.39c-25.82-8.32-24.2 14.56-24.2 14.56h-3.92V28.07C99.45 9.71 79.23 20 79.23 20v-2.9H60.52v10.4h5.54v20.9H55.87L38.5 25.54 53 9.94h6.83V0H33.2v9.94h6.11l-16.6 16.87s.12-16.87 0-16.87h5.88V0H0v9.94h7V48.4H0v10.52h29.05V48.4h-6.34V29.68L37.46 48.4h-5.19v10.52h52.88V48.4h-6.42V31.19a21.55 21.55 0 0 1 2.49-1.73c3.29-2 5.32-1.57 6.47 0C88.7 30.79 89 33 89 35.35v23.57h18.45V54.3C114 61.93 126 60 129.1 55.57v3.35h19.36V50.6c9.45 14.1 30.43 11 36.42-.46v8.78h23.06V48.4h-4.73v-9l16 19.53H231V48.4h-5.42L216.14 37z" fill="#e01b22"/></svg>